<?xml version="1.0" encoding="UTF-8"?>
<svg xmlns="http://www.w3.org/2000/svg" xmlns:xlink="http://www.w3.org/1999/xlink" width="450pt" height="360pt" viewBox="0 0 450 360" version="1.1">
<g id="surface1">
<path style=" stroke:none;fill-rule:nonzero;fill:rgb(0%,0%,0%);fill-opacity:1;" d="M 436.753906 38.289062 C 409.480469 26.851562 382.183594 22.5 354.902344 22.5 C 268.296875 22.492188 181.703125 66.332031 95.097656 66.332031 C 73.378906 66.332031 51.671875 63.578125 29.953125 56.6875 C 27.511719 55.914062 25.066406 55.546875 22.675781 55.546875 C 10.574219 55.546875 0 64.910156 0 77.914062 L 0 300.984375 C 0 309.867188 5.082031 318.285156 13.246094 321.703125 C 40.519531 333.148438 67.816406 337.5 95.097656 337.5 C 181.703125 337.5 268.304688 293.660156 354.910156 293.660156 C 376.628906 293.660156 398.335938 296.414062 420.054688 303.308594 C 422.492188 304.078125 424.941406 304.445312 427.332031 304.445312 C 439.429688 304.445312 450.007812 295.082031 450.007812 282.082031 L 450.007812 59.015625 C 450 50.128906 444.917969 41.714844 436.753906 38.289062 Z M 33.75 92.964844 C 47.898438 96.511719 62.664062 98.289062 77.847656 99.246094 C 73.714844 119.914062 55.546875 135.484375 33.75 135.484375 Z M 33.75 293.355469 L 33.75 259.761719 C 57.917969 259.761719 77.472656 278.933594 78.546875 302.933594 C 62.707031 301.664062 47.898438 298.5 33.75 293.355469 Z M 225 247.5 C 193.929688 247.5 168.75 217.273438 168.75 180 C 168.75 142.71875 193.933594 112.5 225 112.5 C 256.066406 112.5 281.25 142.71875 281.25 180 C 281.25 217.289062 256.058594 247.5 225 247.5 Z M 416.25 267.035156 C 403.929688 263.945312 391.140625 262.21875 378.058594 261.097656 C 382.183594 242.761719 397.394531 228.835938 416.25 226.449219 Z M 416.25 101.019531 C 394.53125 98.269531 377.675781 80.132812 377.007812 57.742188 C 390.746094 59.269531 403.792969 62.121094 416.25 66.644531 Z M 416.25 101.019531 "/>
</g>
</svg>
