<?xml version="1.0" encoding="UTF-8"?>
<svg xmlns="http://www.w3.org/2000/svg" xmlns:xlink="http://www.w3.org/1999/xlink" width="270pt" height="360pt" viewBox="0 0 270 360" version="1.1">
<g id="surface1">
<path style="stroke:none; fill-rule:nonzero;fill: #0065fc ;fill-opacity:1;" d="M 84.375 50.625 C 84.375 22.664062 107.039062 0 135 0 C 162.960938 0 185.625 22.664062 185.625 50.625 C 185.625 78.585938 162.960938 101.25 135 101.25 C 107.039062 101.25 84.375 78.585938 84.375 50.625 Z M 263.40625 51.59375 C 254.621094 42.804688 240.378906 42.804688 231.59375 51.59375 L 170.679688 112.5 L 99.320312 112.5 L 38.410156 51.59375 C 29.621094 42.804688 15.378906 42.804688 6.59375 51.59375 C -2.195312 60.378906 -2.195312 74.621094 6.59375 83.410156 L 73.125 149.945312 L 73.125 337.5 C 73.125 349.925781 83.199219 360 95.625 360 L 106.875 360 C 119.300781 360 129.375 349.925781 129.375 337.5 L 129.375 258.75 L 140.625 258.75 L 140.625 337.5 C 140.625 349.925781 150.699219 360 163.125 360 L 174.375 360 C 186.800781 360 196.875 349.925781 196.875 337.5 L 196.875 149.945312 L 263.40625 83.40625 C 272.195312 74.621094 272.195312 60.378906 263.40625 51.59375 Z M 263.40625 51.59375 "/>
</g>
</svg>
