<?xml version="1.0" encoding="UTF-8"?>
<svg xmlns="http://www.w3.org/2000/svg" xmlns:xlink="http://www.w3.org/1999/xlink" width="405pt" height="360pt" viewBox="0 0 405 360" version="1.1">
<g id="surface1">
<path style=" stroke:none;fill-rule:nonzero;fill: #0065fc;fill-opacity:1;" d="M 209.574219 157.5 L 315 195.152344 L 315 348.75 C 315 354.964844 309.964844 360 303.75 360 L 258.75 360 C 252.535156 360 247.5 354.964844 247.5 348.75 L 247.5 270 L 135 270 L 135 348.75 C 135 354.964844 129.964844 360 123.75 360 L 78.75 360 C 72.535156 360 67.5 354.964844 67.5 348.75 L 67.5 198.34375 C 41.371094 189.027344 22.5 164.292969 22.5 135 C 22.5 122.574219 32.574219 112.5 45 112.5 C 57.425781 112.5 67.5 122.574219 67.5 135 C 67.523438 147.417969 77.582031 157.476562 90 157.5 Z M 382.5 78.75 L 382.5 101.25 C 382.5 126.101562 362.351562 146.25 337.5 146.25 L 315 146.25 L 315 171.265625 L 225 139.128906 L 225 33.75 C 225 23.730469 237.105469 18.710938 244.203125 25.796875 L 263.382812 45 L 301.089844 45 C 308.761719 45 317.789062 50.570312 321.214844 57.4375 L 326.25 67.5 L 371.25 67.5 C 377.464844 67.5 382.5 72.535156 382.5 78.75 Z M 303.75 78.75 C 303.75 72.535156 298.714844 67.5 292.5 67.5 C 286.285156 67.5 281.25 72.535156 281.25 78.75 C 281.25 84.964844 286.285156 90 292.5 90 C 298.714844 90 303.75 84.964844 303.75 78.75 Z M 303.75 78.75 "/>
</g>
</svg>
