<?xml version="1.0" encoding="UTF-8"?>
<svg xmlns="http://www.w3.org/2000/svg" xmlns:xlink="http://www.w3.org/1999/xlink" width="270pt" height="360pt" viewBox="0 0 270 360" version="1.1">
<g id="surface1">
<path style=" stroke:none;fill-rule:nonzero;fill:rgb(0%,0%,0%);fill-opacity:1;" d="M 121.125 352.738281 C 18.960938 204.632812 0 189.429688 0 135 C 0 60.441406 60.441406 0 135 0 C 209.558594 0 270 60.441406 270 135 C 270 189.429688 251.039062 204.632812 148.875 352.738281 C 142.171875 362.421875 127.828125 362.421875 121.125 352.738281 Z M 135 191.25 C 166.066406 191.25 191.25 166.066406 191.25 135 C 191.25 103.933594 166.066406 78.75 135 78.75 C 103.933594 78.75 78.75 103.933594 78.75 135 C 78.75 166.066406 103.933594 191.25 135 191.25 Z M 135 191.25 "/>
</g>
</svg>
